#N canvas 173 226 1179 535 10;
#X obj 64 34 adc~;
#X obj 113 61 metro 100;
#X obj 114 16 bng 15 250 50 0 empty empty empty 17 7 0 10 -262144 -1
-1;
#N canvas 0 50 450 250 (subpatch) 0;
#X array array1 100 float 5;
#A 0 0.00824 0.00518815 0.0061037 0.00671407 0.0100711 0.0134281 0.0177007
0.0189215 0.0161748 0.0128178 0.00976592 0.00488296 0.00518815 0.00915555
0.00976592 0.00976592 0.0106815 0.0103763 0.00976592 0.0061037 0.00244148
-0.00183111 -0.00732444 -0.0137333 -0.0155644 -0.0167852 -0.019837
-0.0222785 -0.0189215 -0.01648 -0.0238044 -0.0314341 -0.0381481 -0.0415052
-0.0402844 -0.0405896 -0.0405896 -0.0418104 -0.0430311 -0.0442518 -0.0466933
-0.0479141 -0.046083 -0.0469985 -0.0491348 -0.0531022 -0.0567644 -0.0570696
-0.0561541 -0.0625629 -0.0680563 -0.0689718 -0.0665303 -0.0604266 -0.0546281
-0.0521867 -0.0543229 -0.05768 -0.0555437 -0.0512711 -0.0476089 -0.0457778
-0.0436415 -0.0430311 -0.0485244 -0.04944 -0.0512711 -0.0537126 -0.0546281
-0.0488296 -0.0430311 -0.0405896 -0.0433363 -0.0485244 -0.0482192 -0.0491348
-0.0485244 -0.0454726 -0.0399792 -0.0347911 -0.0286874 -0.0259407 -0.0262459
-0.0289926 -0.0292978 -0.0283822 -0.0253304 -0.0210578 -0.0170904 -0.00824
-0.00335704 -0.00274667 -0.00396741 -0.000915555 0.00335704 0.00549333
0.0125126 0.0170904 0.0170904 0.021363;
#X coords 0 1 100 -1 200 140 1;
#X restore 230 39 graph;
#X obj 64 98 tabwrite~ array1;
#X obj 28 66 *~ 10;
#X obj 78 256 bng 15 250 50 0 empty empty empty 17 7 0 10 -262144 -1
-1;
#X obj 222 192 send peaks;
#X obj 586 452 *~;
#X obj 668 490 line~;
#X obj 668 464 pack 0 10;
#X floatatom 671 430 5 0 0 0 - - -;
#X obj 586 488 dac~;
#X obj 630 74 s oscslew;
#X floatatom 629 46 5 0 0 0 - - -;
#X floatatom 768 51 5 0 0 0 - - -;
#X obj 768 71 s ampslew;
#X floatatom 64 296 5 0 0 0 - - -;
#N canvas 0 50 450 300 partial1 0;
#X obj 145 70 unpack;
#X floatatom 145 91 5 0 0 0 - - -;
#X floatatom 207 83 5 0 0 0 - - -;
#X obj 76 196 osc~;
#X obj 226 153 pack 0 10;
#X obj 226 174 line~;
#X obj 165 218 *~;
#X obj 214 120 * 10;
#X obj 25 148 pack 0 10;
#X obj 25 169 line~;
#X obj 76 119 r oscslew;
#X obj 277 117 r ampslew;
#X obj 145 12 receive peaks;
#X obj 167 246 outlet~;
#X obj 145 44 route 1;
#X connect 0 0 1 0;
#X connect 0 1 2 0;
#X connect 1 0 8 0;
#X connect 2 0 7 0;
#X connect 3 0 6 0;
#X connect 4 0 5 0;
#X connect 5 0 6 1;
#X connect 6 0 13 0;
#X connect 7 0 4 0;
#X connect 8 0 9 0;
#X connect 9 0 3 0;
#X connect 10 0 8 1;
#X connect 11 0 4 1;
#X connect 12 0 14 0;
#X connect 14 0 0 0;
#X restore 478 134 pd partial1;
#N canvas 318 245 450 300 partial2 0;
#X obj 145 70 unpack;
#X floatatom 145 91 5 0 0 0 - - -;
#X floatatom 207 83 5 0 0 0 - - -;
#X obj 76 196 osc~;
#X obj 226 153 pack 0 10;
#X obj 226 174 line~;
#X obj 165 218 *~;
#X obj 214 120 * 10;
#X obj 25 148 pack 0 10;
#X obj 25 169 line~;
#X obj 76 119 r oscslew;
#X obj 277 117 r ampslew;
#X obj 145 12 receive peaks;
#X obj 167 246 outlet~;
#X obj 147 44 route 2;
#X connect 0 0 1 0;
#X connect 0 1 2 0;
#X connect 1 0 8 0;
#X connect 2 0 7 0;
#X connect 3 0 6 0;
#X connect 4 0 5 0;
#X connect 5 0 6 1;
#X connect 6 0 13 0;
#X connect 7 0 4 0;
#X connect 8 0 9 0;
#X connect 9 0 3 0;
#X connect 10 0 8 1;
#X connect 11 0 4 1;
#X connect 12 0 14 0;
#X connect 14 0 0 0;
#X restore 499 152 pd partial2;
#N canvas 0 50 450 300 partial3 0;
#X obj 145 70 unpack;
#X floatatom 145 91 5 0 0 0 - - -;
#X floatatom 207 83 5 0 0 0 - - -;
#X obj 76 196 osc~;
#X obj 226 153 pack 0 10;
#X obj 226 174 line~;
#X obj 165 218 *~;
#X obj 214 120 * 10;
#X obj 25 148 pack 0 10;
#X obj 25 169 line~;
#X obj 76 119 r oscslew;
#X obj 277 117 r ampslew;
#X obj 145 12 receive peaks;
#X obj 167 246 outlet~;
#X obj 145 44 route 3;
#X connect 0 0 1 0;
#X connect 0 1 2 0;
#X connect 1 0 8 0;
#X connect 2 0 7 0;
#X connect 3 0 6 0;
#X connect 4 0 5 0;
#X connect 5 0 6 1;
#X connect 6 0 13 0;
#X connect 7 0 4 0;
#X connect 8 0 9 0;
#X connect 9 0 3 0;
#X connect 10 0 8 1;
#X connect 11 0 4 1;
#X connect 12 0 14 0;
#X connect 14 0 0 0;
#X restore 518 172 pd partial3;
#N canvas 0 50 450 300 partial4 0;
#X obj 145 70 unpack;
#X floatatom 145 91 5 0 0 0 - - -;
#X floatatom 207 83 5 0 0 0 - - -;
#X obj 76 196 osc~;
#X obj 226 153 pack 0 10;
#X obj 226 174 line~;
#X obj 165 218 *~;
#X obj 214 120 * 10;
#X obj 25 148 pack 0 10;
#X obj 25 169 line~;
#X obj 76 119 r oscslew;
#X obj 277 117 r ampslew;
#X obj 145 12 receive peaks;
#X obj 167 246 outlet~;
#X obj 145 44 route 4;
#X connect 0 0 1 0;
#X connect 0 1 2 0;
#X connect 1 0 8 0;
#X connect 2 0 7 0;
#X connect 3 0 6 0;
#X connect 4 0 5 0;
#X connect 5 0 6 1;
#X connect 6 0 13 0;
#X connect 7 0 4 0;
#X connect 8 0 9 0;
#X connect 9 0 3 0;
#X connect 10 0 8 1;
#X connect 11 0 4 1;
#X connect 12 0 14 0;
#X connect 14 0 0 0;
#X restore 535 191 pd partial4;
#N canvas 0 50 450 300 partial5 0;
#X obj 145 70 unpack;
#X floatatom 145 91 5 0 0 0 - - -;
#X floatatom 207 83 5 0 0 0 - - -;
#X obj 76 196 osc~;
#X obj 226 153 pack 0 10;
#X obj 226 174 line~;
#X obj 165 218 *~;
#X obj 214 120 * 10;
#X obj 25 148 pack 0 10;
#X obj 25 169 line~;
#X obj 76 119 r oscslew;
#X obj 277 117 r ampslew;
#X obj 145 12 receive peaks;
#X obj 167 246 outlet~;
#X obj 145 44 route 5;
#X connect 0 0 1 0;
#X connect 0 1 2 0;
#X connect 1 0 8 0;
#X connect 2 0 7 0;
#X connect 3 0 6 0;
#X connect 4 0 5 0;
#X connect 5 0 6 1;
#X connect 6 0 13 0;
#X connect 7 0 4 0;
#X connect 8 0 9 0;
#X connect 9 0 3 0;
#X connect 10 0 8 1;
#X connect 11 0 4 1;
#X connect 12 0 14 0;
#X connect 14 0 0 0;
#X restore 549 210 pd partial5;
#N canvas 0 50 450 300 partial6 0;
#X obj 145 70 unpack;
#X floatatom 145 91 5 0 0 0 - - -;
#X floatatom 207 83 5 0 0 0 - - -;
#X obj 76 196 osc~;
#X obj 226 153 pack 0 10;
#X obj 226 174 line~;
#X obj 165 218 *~;
#X obj 214 120 * 10;
#X obj 25 148 pack 0 10;
#X obj 25 169 line~;
#X obj 76 119 r oscslew;
#X obj 277 117 r ampslew;
#X obj 145 12 receive peaks;
#X obj 167 246 outlet~;
#X obj 145 44 route 6;
#X connect 0 0 1 0;
#X connect 0 1 2 0;
#X connect 1 0 8 0;
#X connect 2 0 7 0;
#X connect 3 0 6 0;
#X connect 4 0 5 0;
#X connect 5 0 6 1;
#X connect 6 0 13 0;
#X connect 7 0 4 0;
#X connect 8 0 9 0;
#X connect 9 0 3 0;
#X connect 10 0 8 1;
#X connect 11 0 4 1;
#X connect 12 0 14 0;
#X connect 14 0 0 0;
#X restore 564 230 pd partial6;
#N canvas 0 50 450 300 partial7 0;
#X obj 145 70 unpack;
#X floatatom 145 91 5 0 0 0 - - -;
#X floatatom 207 83 5 0 0 0 - - -;
#X obj 76 196 osc~;
#X obj 226 153 pack 0 10;
#X obj 226 174 line~;
#X obj 165 218 *~;
#X obj 214 120 * 10;
#X obj 25 148 pack 0 10;
#X obj 25 169 line~;
#X obj 76 119 r oscslew;
#X obj 277 117 r ampslew;
#X obj 145 12 receive peaks;
#X obj 167 246 outlet~;
#X obj 145 44 route 7;
#X connect 0 0 1 0;
#X connect 0 1 2 0;
#X connect 1 0 8 0;
#X connect 2 0 7 0;
#X connect 3 0 6 0;
#X connect 4 0 5 0;
#X connect 5 0 6 1;
#X connect 6 0 13 0;
#X connect 7 0 4 0;
#X connect 8 0 9 0;
#X connect 9 0 3 0;
#X connect 10 0 8 1;
#X connect 11 0 4 1;
#X connect 12 0 14 0;
#X connect 14 0 0 0;
#X restore 581 249 pd partial7;
#N canvas 0 50 450 300 partial8 0;
#X obj 145 70 unpack;
#X floatatom 145 91 5 0 0 0 - - -;
#X floatatom 207 83 5 0 0 0 - - -;
#X obj 76 196 osc~;
#X obj 226 153 pack 0 10;
#X obj 226 174 line~;
#X obj 165 218 *~;
#X obj 214 120 * 10;
#X obj 25 148 pack 0 10;
#X obj 25 169 line~;
#X obj 76 119 r oscslew;
#X obj 277 117 r ampslew;
#X obj 145 12 receive peaks;
#X obj 167 246 outlet~;
#X obj 145 44 route 8;
#X connect 0 0 1 0;
#X connect 0 1 2 0;
#X connect 1 0 8 0;
#X connect 2 0 7 0;
#X connect 3 0 6 0;
#X connect 4 0 5 0;
#X connect 5 0 6 1;
#X connect 6 0 13 0;
#X connect 7 0 4 0;
#X connect 8 0 9 0;
#X connect 9 0 3 0;
#X connect 10 0 8 1;
#X connect 11 0 4 1;
#X connect 12 0 14 0;
#X connect 14 0 0 0;
#X restore 596 269 pd partial8;
#N canvas 0 50 450 300 partial9 0;
#X obj 145 70 unpack;
#X floatatom 145 91 5 0 0 0 - - -;
#X floatatom 207 83 5 0 0 0 - - -;
#X obj 76 196 osc~;
#X obj 226 153 pack 0 10;
#X obj 226 174 line~;
#X obj 165 218 *~;
#X obj 214 120 * 10;
#X obj 25 148 pack 0 10;
#X obj 25 169 line~;
#X obj 76 119 r oscslew;
#X obj 277 117 r ampslew;
#X obj 145 12 receive peaks;
#X obj 167 246 outlet~;
#X obj 145 44 route 9;
#X connect 0 0 1 0;
#X connect 0 1 2 0;
#X connect 1 0 8 0;
#X connect 2 0 7 0;
#X connect 3 0 6 0;
#X connect 4 0 5 0;
#X connect 5 0 6 1;
#X connect 6 0 13 0;
#X connect 7 0 4 0;
#X connect 8 0 9 0;
#X connect 9 0 3 0;
#X connect 10 0 8 1;
#X connect 11 0 4 1;
#X connect 12 0 14 0;
#X connect 14 0 0 0;
#X restore 610 289 pd partial9;
#N canvas 0 50 450 300 partial10 0;
#X obj 145 70 unpack;
#X floatatom 145 91 5 0 0 0 - - -;
#X floatatom 207 83 5 0 0 0 - - -;
#X obj 76 196 osc~;
#X obj 226 153 pack 0 10;
#X obj 226 174 line~;
#X obj 165 218 *~;
#X obj 214 120 * 10;
#X obj 25 148 pack 0 10;
#X obj 25 169 line~;
#X obj 76 119 r oscslew;
#X obj 277 117 r ampslew;
#X obj 145 12 receive peaks;
#X obj 167 246 outlet~;
#X obj 145 44 route 10;
#X connect 0 0 1 0;
#X connect 0 1 2 0;
#X connect 1 0 8 0;
#X connect 2 0 7 0;
#X connect 3 0 6 0;
#X connect 4 0 5 0;
#X connect 5 0 6 1;
#X connect 6 0 13 0;
#X connect 7 0 4 0;
#X connect 8 0 9 0;
#X connect 9 0 3 0;
#X connect 10 0 8 1;
#X connect 11 0 4 1;
#X connect 12 0 14 0;
#X connect 14 0 0 0;
#X restore 640 125 pd partial10;
#N canvas 0 50 450 300 partial11 0;
#X obj 145 70 unpack;
#X floatatom 145 91 5 0 0 0 - - -;
#X floatatom 207 83 5 0 0 0 - - -;
#X obj 76 196 osc~;
#X obj 226 153 pack 0 10;
#X obj 226 174 line~;
#X obj 165 218 *~;
#X obj 214 120 * 10;
#X obj 25 148 pack 0 10;
#X obj 25 169 line~;
#X obj 76 119 r oscslew;
#X obj 277 117 r ampslew;
#X obj 145 12 receive peaks;
#X obj 167 246 outlet~;
#X obj 145 44 route 11;
#X connect 0 0 1 0;
#X connect 0 1 2 0;
#X connect 1 0 8 0;
#X connect 2 0 7 0;
#X connect 3 0 6 0;
#X connect 4 0 5 0;
#X connect 5 0 6 1;
#X connect 6 0 13 0;
#X connect 7 0 4 0;
#X connect 8 0 9 0;
#X connect 9 0 3 0;
#X connect 10 0 8 1;
#X connect 11 0 4 1;
#X connect 12 0 14 0;
#X connect 14 0 0 0;
#X restore 651 144 pd partial11;
#N canvas 318 245 450 300 partial12 0;
#X obj 145 70 unpack;
#X floatatom 145 91 5 0 0 0 - - -;
#X floatatom 207 83 5 0 0 0 - - -;
#X obj 76 196 osc~;
#X obj 226 153 pack 0 10;
#X obj 226 174 line~;
#X obj 165 218 *~;
#X obj 214 120 * 10;
#X obj 25 148 pack 0 10;
#X obj 25 169 line~;
#X obj 76 119 r oscslew;
#X obj 277 117 r ampslew;
#X obj 145 12 receive peaks;
#X obj 167 246 outlet~;
#X obj 147 44 route 12;
#X connect 0 0 1 0;
#X connect 0 1 2 0;
#X connect 1 0 8 0;
#X connect 2 0 7 0;
#X connect 3 0 6 0;
#X connect 4 0 5 0;
#X connect 5 0 6 1;
#X connect 6 0 13 0;
#X connect 7 0 4 0;
#X connect 8 0 9 0;
#X connect 9 0 3 0;
#X connect 10 0 8 1;
#X connect 11 0 4 1;
#X connect 12 0 14 0;
#X connect 14 0 0 0;
#X restore 672 162 pd partial12;
#N canvas 0 50 450 300 partial13 0;
#X obj 145 70 unpack;
#X floatatom 145 91 5 0 0 0 - - -;
#X floatatom 207 83 5 0 0 0 - - -;
#X obj 76 196 osc~;
#X obj 226 153 pack 0 10;
#X obj 226 174 line~;
#X obj 165 218 *~;
#X obj 214 120 * 10;
#X obj 25 148 pack 0 10;
#X obj 25 169 line~;
#X obj 76 119 r oscslew;
#X obj 277 117 r ampslew;
#X obj 145 12 receive peaks;
#X obj 167 246 outlet~;
#X obj 146 44 route 13;
#X connect 0 0 1 0;
#X connect 0 1 2 0;
#X connect 1 0 8 0;
#X connect 2 0 7 0;
#X connect 3 0 6 0;
#X connect 4 0 5 0;
#X connect 5 0 6 1;
#X connect 6 0 13 0;
#X connect 7 0 4 0;
#X connect 8 0 9 0;
#X connect 9 0 3 0;
#X connect 10 0 8 1;
#X connect 11 0 4 1;
#X connect 12 0 14 0;
#X connect 14 0 0 0;
#X restore 691 182 pd partial13;
#N canvas 0 50 450 300 partial14 0;
#X obj 145 70 unpack;
#X floatatom 145 91 5 0 0 0 - - -;
#X floatatom 207 83 5 0 0 0 - - -;
#X obj 76 196 osc~;
#X obj 226 153 pack 0 10;
#X obj 226 174 line~;
#X obj 165 218 *~;
#X obj 214 120 * 10;
#X obj 25 148 pack 0 10;
#X obj 25 169 line~;
#X obj 76 119 r oscslew;
#X obj 277 117 r ampslew;
#X obj 145 12 receive peaks;
#X obj 167 246 outlet~;
#X obj 145 44 route 14;
#X connect 0 0 1 0;
#X connect 0 1 2 0;
#X connect 1 0 8 0;
#X connect 2 0 7 0;
#X connect 3 0 6 0;
#X connect 4 0 5 0;
#X connect 5 0 6 1;
#X connect 6 0 13 0;
#X connect 7 0 4 0;
#X connect 8 0 9 0;
#X connect 9 0 3 0;
#X connect 10 0 8 1;
#X connect 11 0 4 1;
#X connect 12 0 14 0;
#X connect 14 0 0 0;
#X restore 708 201 pd partial14;
#N canvas 0 50 450 300 partial15 0;
#X obj 145 70 unpack;
#X floatatom 145 91 5 0 0 0 - - -;
#X floatatom 207 83 5 0 0 0 - - -;
#X obj 76 196 osc~;
#X obj 226 153 pack 0 10;
#X obj 226 174 line~;
#X obj 165 218 *~;
#X obj 214 120 * 10;
#X obj 25 148 pack 0 10;
#X obj 25 169 line~;
#X obj 76 119 r oscslew;
#X obj 277 117 r ampslew;
#X obj 145 12 receive peaks;
#X obj 167 246 outlet~;
#X obj 145 44 route 15;
#X connect 0 0 1 0;
#X connect 0 1 2 0;
#X connect 1 0 8 0;
#X connect 2 0 7 0;
#X connect 3 0 6 0;
#X connect 4 0 5 0;
#X connect 5 0 6 1;
#X connect 6 0 13 0;
#X connect 7 0 4 0;
#X connect 8 0 9 0;
#X connect 9 0 3 0;
#X connect 10 0 8 1;
#X connect 11 0 4 1;
#X connect 12 0 14 0;
#X connect 14 0 0 0;
#X restore 722 220 pd partial15;
#N canvas 0 50 450 300 partial16 0;
#X obj 145 70 unpack;
#X floatatom 145 91 5 0 0 0 - - -;
#X floatatom 207 83 5 0 0 0 - - -;
#X obj 76 196 osc~;
#X obj 226 153 pack 0 10;
#X obj 226 174 line~;
#X obj 165 218 *~;
#X obj 214 120 * 10;
#X obj 25 148 pack 0 10;
#X obj 25 169 line~;
#X obj 76 119 r oscslew;
#X obj 277 117 r ampslew;
#X obj 145 12 receive peaks;
#X obj 167 246 outlet~;
#X obj 145 44 route 16;
#X connect 0 0 1 0;
#X connect 0 1 2 0;
#X connect 1 0 8 0;
#X connect 2 0 7 0;
#X connect 3 0 6 0;
#X connect 4 0 5 0;
#X connect 5 0 6 1;
#X connect 6 0 13 0;
#X connect 7 0 4 0;
#X connect 8 0 9 0;
#X connect 9 0 3 0;
#X connect 10 0 8 1;
#X connect 11 0 4 1;
#X connect 12 0 14 0;
#X connect 14 0 0 0;
#X restore 737 240 pd partial16;
#N canvas 0 50 450 300 partial17 0;
#X obj 145 70 unpack;
#X floatatom 145 91 5 0 0 0 - - -;
#X floatatom 207 83 5 0 0 0 - - -;
#X obj 76 196 osc~;
#X obj 226 153 pack 0 10;
#X obj 226 174 line~;
#X obj 165 218 *~;
#X obj 214 120 * 10;
#X obj 25 148 pack 0 10;
#X obj 25 169 line~;
#X obj 76 119 r oscslew;
#X obj 277 117 r ampslew;
#X obj 145 12 receive peaks;
#X obj 167 246 outlet~;
#X obj 145 44 route 17;
#X connect 0 0 1 0;
#X connect 0 1 2 0;
#X connect 1 0 8 0;
#X connect 2 0 7 0;
#X connect 3 0 6 0;
#X connect 4 0 5 0;
#X connect 5 0 6 1;
#X connect 6 0 13 0;
#X connect 7 0 4 0;
#X connect 8 0 9 0;
#X connect 9 0 3 0;
#X connect 10 0 8 1;
#X connect 11 0 4 1;
#X connect 12 0 14 0;
#X connect 14 0 0 0;
#X restore 754 259 pd partial17;
#N canvas 0 50 450 300 partial18 0;
#X obj 145 70 unpack;
#X floatatom 145 91 5 0 0 0 - - -;
#X floatatom 207 83 5 0 0 0 - - -;
#X obj 76 196 osc~;
#X obj 226 153 pack 0 10;
#X obj 226 174 line~;
#X obj 165 218 *~;
#X obj 214 120 * 10;
#X obj 25 148 pack 0 10;
#X obj 25 169 line~;
#X obj 76 119 r oscslew;
#X obj 277 117 r ampslew;
#X obj 145 12 receive peaks;
#X obj 167 246 outlet~;
#X obj 145 44 route 18;
#X connect 0 0 1 0;
#X connect 0 1 2 0;
#X connect 1 0 8 0;
#X connect 2 0 7 0;
#X connect 3 0 6 0;
#X connect 4 0 5 0;
#X connect 5 0 6 1;
#X connect 6 0 13 0;
#X connect 7 0 4 0;
#X connect 8 0 9 0;
#X connect 9 0 3 0;
#X connect 10 0 8 1;
#X connect 11 0 4 1;
#X connect 12 0 14 0;
#X connect 14 0 0 0;
#X restore 769 279 pd partial18;
#N canvas 0 50 450 300 partial19 0;
#X obj 145 70 unpack;
#X floatatom 145 91 5 0 0 0 - - -;
#X floatatom 207 83 5 0 0 0 - - -;
#X obj 76 196 osc~;
#X obj 226 153 pack 0 10;
#X obj 226 174 line~;
#X obj 165 218 *~;
#X obj 214 120 * 10;
#X obj 25 148 pack 0 10;
#X obj 25 169 line~;
#X obj 76 119 r oscslew;
#X obj 277 117 r ampslew;
#X obj 145 12 receive peaks;
#X obj 167 246 outlet~;
#X obj 145 44 route 19;
#X connect 0 0 1 0;
#X connect 0 1 2 0;
#X connect 1 0 8 0;
#X connect 2 0 7 0;
#X connect 3 0 6 0;
#X connect 4 0 5 0;
#X connect 5 0 6 1;
#X connect 6 0 13 0;
#X connect 7 0 4 0;
#X connect 8 0 9 0;
#X connect 9 0 3 0;
#X connect 10 0 8 1;
#X connect 11 0 4 1;
#X connect 12 0 14 0;
#X connect 14 0 0 0;
#X restore 783 299 pd partial19;
#X obj 66 209 fiddle~ 1024 1 19 19;
#X connect 0 0 5 0;
#X connect 0 0 37 0;
#X connect 1 0 4 0;
#X connect 2 0 1 0;
#X connect 5 0 4 0;
#X connect 8 0 12 0;
#X connect 8 0 12 1;
#X connect 9 0 8 1;
#X connect 10 0 9 0;
#X connect 11 0 10 0;
#X connect 14 0 13 0;
#X connect 15 0 16 0;
#X connect 18 0 8 0;
#X connect 19 0 8 0;
#X connect 20 0 8 0;
#X connect 21 0 8 0;
#X connect 22 0 8 0;
#X connect 23 0 8 0;
#X connect 24 0 8 0;
#X connect 25 0 8 0;
#X connect 26 0 8 0;
#X connect 27 0 8 0;
#X connect 28 0 8 0;
#X connect 29 0 8 0;
#X connect 30 0 8 0;
#X connect 31 0 8 0;
#X connect 32 0 8 0;
#X connect 33 0 8 0;
#X connect 34 0 8 0;
#X connect 35 0 8 0;
#X connect 36 0 8 0;
#X connect 37 0 17 0;
#X connect 37 1 6 0;
#X connect 37 4 7 0;
#X coords 0 0 10 10 0 0 0;
